<svg width="33" height="33" viewBox="0 0 33 33" fill="none" xmlns="http://www.w3.org/2000/svg">
<path d="M8.86578 10.958C9.29801 7.06795 12.5861 4.125 16.5 4.125V4.125C20.4139 4.125 23.702 7.06794 24.1342 10.958L24.4804 14.074C24.5568 14.7613 24.595 15.1049 24.6617 15.4406C24.7964 16.1182 25.0183 16.7756 25.3218 17.3962C25.4722 17.7037 25.6501 18.0001 26.0058 18.5931L27.0576 20.346C27.8634 21.6889 28.2662 22.3604 27.979 22.8677C27.6918 23.375 26.9087 23.375 25.3426 23.375H7.65738C6.09127 23.375 5.30822 23.375 5.02099 22.8677C4.73376 22.3604 5.13664 21.6889 5.9424 20.346L6.99415 18.5931C7.34992 18.0001 7.5278 17.7037 7.6782 17.3962C7.98175 16.7756 8.20362 16.1182 8.33829 15.4406C8.40501 15.1049 8.44319 14.7613 8.51956 14.074L8.86578 10.958Z" stroke="#4C4DDC" stroke-width="2"/>
<path d="M11 23.375C11 24.0973 11.1423 24.8125 11.4187 25.4798C11.6951 26.147 12.1002 26.7534 12.6109 27.2641C13.1216 27.7748 13.728 28.1799 14.3952 28.4563C15.0625 28.7327 15.7777 28.875 16.5 28.875C17.2223 28.875 17.9375 28.7327 18.6048 28.4563C19.272 28.1799 19.8784 27.7748 20.3891 27.2641C20.8998 26.7534 21.3049 26.147 21.5813 25.4798C21.8577 24.8125 22 24.0973 22 23.375" stroke="#4C4DDC" stroke-width="2" stroke-linecap="round"/>
</svg>
