<svg width="89" height="89" viewBox="0 0 89 89" fill="none" xmlns="http://www.w3.org/2000/svg">
<path d="M11.125 44.5C11.125 26.0675 26.0675 11.125 44.5 11.125C62.9325 11.125 77.875 26.0675 77.875 44.5C77.875 62.9325 62.9325 77.875 44.5 77.875C26.0675 77.875 11.125 62.9325 11.125 44.5Z" fill="#4C4DDC"/>
<circle cx="44.5003" cy="37.0833" r="14.8333" fill="white"/>
<path d="M44.4999 55.625C57.1348 55.625 67.6603 63.3627 69.981 73.6112C70.0024 73.7058 69.9664 73.8043 69.8888 73.8626C69.2554 74.3388 68.593 74.779 67.9032 75.1787C63.2514 77.8746 57.0009 77.875 44.4999 77.875C31.999 77.875 25.7484 77.8746 21.0966 75.1787C20.4072 74.7792 19.7451 74.3394 19.112 73.8636C19.0344 73.8053 18.9983 73.7067 19.0198 73.6121C21.34 63.3634 31.8648 55.6251 44.4999 55.625Z" fill="white"/>
</svg>
